<?xml version="1.0" encoding="UTF-8" standalone="no"?>
<svg
   xmlns:dc="http://purl.org/dc/elements/1.1/"
   xmlns:cc="http://creativecommons.org/ns#"
   xmlns:rdf="http://www.w3.org/1999/02/22-rdf-syntax-ns#"
   xmlns:svg="http://www.w3.org/2000/svg"
   xmlns="http://www.w3.org/2000/svg"
   xmlns:sodipodi="http://sodipodi.sourceforge.net/DTD/sodipodi-0.dtd"
   xmlns:inkscape="http://www.inkscape.org/namespaces/inkscape"
   viewBox="0 -0.5 80 80"
   shape-rendering="crispEdges"
   version="1.1"
   id="svg34"
   sodipodi:docname="avatar.svg"
   inkscape:version="0.92.4 5da689c313, 2019-01-14">
  <metadata
     id="metadata40">
    <rdf:RDF>
      <cc:Work
         rdf:about="">
        <dc:format>image/svg+xml</dc:format>
        <dc:type
           rdf:resource="http://purl.org/dc/dcmitype/StillImage" />
      </cc:Work>
    </rdf:RDF>
  </metadata>
  <defs
     id="defs38" />
  <sodipodi:namedview
     pagecolor="#ffffff"
     bordercolor="#666666"
     borderopacity="1"
     objecttolerance="10"
     gridtolerance="10"
     guidetolerance="10"
     inkscape:pageopacity="0"
     inkscape:pageshadow="2"
     inkscape:window-width="1920"
     inkscape:window-height="1029"
     id="namedview36"
     showgrid="false"
     inkscape:zoom="3.3978414"
     inkscape:cx="2.3591609"
     inkscape:cy="101.18141"
     inkscape:window-x="0"
     inkscape:window-y="24"
     inkscape:window-maximized="1"
     inkscape:current-layer="svg34" />
  <path
     id="path2"
     d="M0 0h80M0 1h80M0 2h80M0 3h80M0 4h80M0 5h80M0 6h80M0 7h80M0 8h34m11 0h35M0 9h31m17 0h32M0 10h29m21 0h30M0 11h28m23 0h29M0 12h27m25 0h28M0 13h25m28 0h27M0 14h24m30 0h26M0 15h24m30 0h26M0 16h23m32 0h25M0 17h22m34 0h24M0 18h22m23 0h1m10 0h24M0 19h22m23 0h1m11 0h23M0 20h21m24 0h1m11 0h23M0 21h21m25 0h1m3 0h2m6 0h22M0 22h21m18 0h1m10 0h2m6 0h22M0 23h21m18 0h2m8 0h3m1 0h1m4 0h22M0 24h21m6 0h1m8 0h4m7 0h4m7 0h22M0 25h21m5 0h3m1 0h14m2 0h8m4 0h22M0 26h21m5 0h29m3 0h22M0 27h21m6 0h28m3 0h22M0 28h21m6 0h28m3 0h22M0 29h21m12 0h23m2 0h22M0 30h21m16 0h6m9 0h4m2 0h22M0 31h21m7 0h5m5 0h4m7 0h1m3 0h3m2 0h22M0 32h21m7 0h7m3 0h4m4 0h6m1 0h3m2 0h22M0 33h21m17 0h4m5 0h9m2 0h22M0 34h21m12 0h1m2 0h1m1 0h4m10 0h4m2 0h22M0 35h21m8 0h1m3 0h3m2 0h4m1 0h1m1 0h1m3 0h1m3 0h3m2 0h22M0 36h21m10 0h1m6 0h5m4 0h3m2 0h4m2 0h22M0 37h21m4 0h2m11 0h6m3 0h2m2 0h5m2 0h22M0 38h21m4 0h3m3 0h4m3 0h18m2 0h22M0 39h21m4 0h10m3 0h42M0 40h21m5 0h8m4 0h42M0 41h21m5 0h8m3 0h43M0 42h22m5 0h7m3 0h43M0 43h22m6 0h6m3 0h43M0 44h22m6 0h5m6 0h41M0 45h23m6 0h4m7 0h1m3 0h36M0 46h24m6 0h3m10 0h12m1 0h24M0 47h24m7 0h4m4 0h15m1 0h25M0 48h25m7 0h4m2 0h15m2 0h25M0 49h25m7 0h3m3 0h15m1 0h26M0 50h25m12 0h43M0 51h25m11 0h44M0 52h26m18 0h2m1 0h6m1 0h26M0 53h26m21 0h5m2 0h26M0 54h26m7 0h1m4 0h2m5 0h7m1 0h27M0 55h27m7 0h1m8 0h8m2 0h27M0 56h27m16 0h8m2 0h27M0 57h28m14 0h8m3 0h27M0 58h29m7 0h11m1 0h1m3 0h28M0 59h28m8 0h11m4 0h2m2 0h25M0 60h27m9 0h11m3 0h3m4 0h23M0 61h25m11 0h10m3 0h3m6 0h22M0 62h24m13 0h7m4 0h4m7 0h21M0 63h24m13 0h2m2 0h2m4 0h10m3 0h20M0 64h24m21 0h12m4 0h19M0 65h24m20 0h36M0 66h26m16 0h38M0 67h26m14 0h40M0 68h26m10 0h44M0 69h28m8 0h44M0 70h29m7 0h44M0 71h30m12 0h38M0 72h80M0 73h80M0 74h80M0 75h80M0 76h80M0 77h80M0 78h80M0 79h80"
     stroke="#fafafa" />
  <path
     stroke="#cbcbcb"
     d="M34 8h1m14 2h1m-5 11h1m-2 1h1m1 0h1m7 2h1m-30 1h1m3 0h1m15 0h1m8 0h1m-26 4h3m18 1h2m-7 3h2m-17 3h1m15 0h1m3 0h1m-2 1h2m6 0h1m-28 1h1m26 0h1m-24 3h1m-1 1h1m3 2h1m-6 2h1m8 0h1m-5 1h1m-2 2h1m-8 1h1m15 2h1m-18 1h1m22 0h1m-23 1h1m3 0h1m2 0h1m-5 3h1m16 2h1m1 2h1m-28 1h1m20 1h1m-18 7h1"
     id="path4" />
  <path
     stroke="#2b2b2b"
     d="M35 8h3m4 0h1m1 0h1M31 9h17m-18 1h19m-21 1h23m-24 1h25m-27 1h4m1 0h23m-29 1h5m1 0h6m1 0h1m1 0h15m-30 1h4m1 0h5m4 0h16m-31 1h6m1 0h4m3 0h3m2 0h3m1 0h8m-32 1h7m1 0h4m3 0h1m4 0h3m1 0h10m-34 1h7m2 0h4m2 0h2m8 0h4m1 0h4m-34 1h7m3 0h2m4 0h2m7 0h4m1 0h5m-36 1h9m2 0h4m2 0h2m1 0h2m5 0h2m4 0h3m-36 1h9m1 0h5m3 0h1m1 0h3m8 0h1m1 0h4m-37 1h5m2 0h2m1 0h5m4 0h4m1 0h1m2 0h1m5 0h4m-37 1h4m3 0h1m3 0h4m5 0h6m8 0h3m-37 1h4m17 0h1m1 0h2m9 0h3m-37 1h3m31 0h3m-37 1h3m31 0h3m-37 1h3m32 0h2m-37 1h3m32 0h2m-37 1h2m33 0h2m-37 1h2m3 0h9m11 0h1m9 0h2m-37 1h2m2 0h2m8 0h1m10 0h1m4 0h1m4 0h2m-37 1h2m2 0h1m10 0h1m19 0h2m-37 1h2m7 0h3m3 0h1m19 0h2m-37 1h2m4 0h6m2 0h1m1 0h1m6 0h7m5 0h2m-37 1h2m3 0h2m2 0h2m5 0h1m8 0h3m1 0h2m4 0h2m-37 1h2m5 0h1m27 0h2m-37 1h2m33 0h1m-36 1h2m33 0h1m-36 1h2m-2 1h2m-1 1h1m-1 1h1m0 1h1m-1 1h2m9 0h1m-12 1h2m9 0h4m3 0h1m-18 1h1m9 0h4m-13 1h1m-1 1h1m-1 1h1m-1 1h1m-1 1h1m0 1h1m10 0h1m-12 1h1m7 0h3m1 0h3m1 0h4m-20 1h2m-1 1h2m-1 1h1m-1 1h1m0 1h1m-1 1h2m-2 1h3m-2 1h3m-3 1h4m-3 1h5m-4 1h6m-6 1h1m3 0h1m-7 3h1m-1 1h1"
     id="path6" />
  <path
     stroke="#6f6f6f"
     d="M38 8h4m-13 6h1m-2 1h1m5 0h2m0 1h1m-8 1h1m6 0h1m1 0h2m4 1h1m-1 1h1m-5 1h1m3 0h1m-5 1h1m8 1h1m2 0h1m-25 2h1m11 0h2m-18 1h1m19 0h1m10 2h1m-21 3h1m13 0h1m-16 1h1m12 0h1m4 0h1m-18 1h1m-8 3h1m3 0h1m3 0h1m7 0h1m-19 1h1m16 0h2m-9 5h1m-14 1h1m-2 1h1m13 0h1m-1 1h2m-13 2h1m-2 1h1m17 5h2m2 1h1m-12 2h1m-9 1h1m4 4h1m1 2h1m1 1h1m7 1h1m-11 1h2"
     id="path8" />
  <path
     stroke="#6e6e6e"
     d="M43 8h1m-15 5h1m6 1h1m1 0h1m-3 1h2m-4 1h2m4 0h2m3 0h1m-12 1h2m5 0h1m3 0h1m-17 1h2m4 0h2m2 0h5m2 0h1m4 0h1m-23 1h3m2 0h4m2 0h4m7 0h1m-22 1h2m4 0h2m5 0h1m3 0h1m4 0h1m-23 1h1m5 0h3m9 0h1m-19 1h1m6 0h1m-13 1h1m3 0h1m17 0h1m6 0h1m-26 1h1m13 0h1m2 0h1m-24 5h1m20 1h2m1 0h1m-12 1h1m7 0h2m2 0h1m1 0h1m-27 1h1m12 0h1m-14 1h2m11 0h1m-14 1h3m7 0h1m-11 1h2m-3 1h1m3 0h1m1 0h1m21 0h1m-29 1h1m4 0h1m1 0h1m-8 1h1m-1 1h1m-1 1h2m11 0h1m-16 1h1m1 0h2m-1 1h2m9 0h1m-12 1h2m8 0h2m-14 1h1m2 0h1m9 0h1m-11 1h1m0 1h1m-1 1h2m8 0h1m-11 2h1m-1 1h2m-2 1h4m-3 1h5m4 0h1m2 0h1m-13 1h2m1 0h1m-3 1h1m6 0h1m-7 1h1m-1 1h3m-2 1h2m-2 1h3m-2 1h2m-5 1h1m-1 1h2m3 0h1m-8 1h4m16 0h1m-21 1h5m13 0h1m-19 1h6m6 0h6m-18 1h6m1 0h1m3 0h5m-14 1h3m2 0h2m-7 1h2m4 0h2m-6 3h2m-1 1h1"
     id="path10" />
  <path
     stroke="#2a2a2a"
     d="M29 10h1m24 6h1m-5 4h1m2 1h1m-7 1h1m4 1h1m-19 1h1m-6 9h1m4 0h1m8 1h1m-2 11h1m-10 8h1m3 0h1m3 0h1"
     id="path12" />
  <path
     stroke="#707070"
     d="M29 16h1m-3 6h1m8 0h1m16 0h1m-24 1h1m6 0h2m-12 6h2m-6 1h1m1 0h1m0 2h1m-1 1h1m15 0h3m-22 1h1m13 2h1m-9 1h1m7 0h1m-3 4h1m-10 3h1m-1 1h1m-1 3h1m10 0h1m-11 1h1m2 2h1m10 1h1m-13 2h1m6 0h1m-7 1h1m1 2h1m-7 4h2m19 0h1m-23 2h1m5 3h2m-3 1h1m2 0h1m-5 1h1m-1 1h1m1 0h1"
     id="path14" />
  <path
     stroke="#cacaca"
     d="M40 17h1m5 2h1m4 1h1m-17 4h1m19 4h1m-30 1h1m5 0h1m15 1h1m-4 7h1m-20 5h1m12 4h3m-11 7h1m11 1h1m-11 1h1m17 3h1m-17 4h1m11 0h1m6 0h3m1 0h1m-16 1h1m-4 3h2"
     id="path16" />
  <path
     stroke="#c9c9c9"
     d="M46 20h1m-3 1h1m2 0h1m-22 2h2m3 0h1m4 0h1m11 0h1m-24 1h2m3 0h4m17 0h3m-30 2h2m-2 1h3m-3 1h3m-3 1h2m-2 1h1m11 0h1m6 0h1m-21 1h2m2 0h1m5 0h1m3 0h1m4 0h2m-21 1h1m3 0h1m14 0h4m6 0h1m-26 1h2m6 0h1m6 1h1m8 0h1m-29 1h1m28 0h1m-29 1h2m6 0h5m8 0h1m-22 1h1m2 0h1m3 0h6m7 0h1m1 0h1m-23 1h1m3 0h2m5 0h3m-14 1h1m10 0h3m-13 1h1m8 0h2m1 0h1m-13 1h1m10 1h1m-11 1h2m-1 1h1m5 0h1m-7 1h2m4 0h1m4 0h2m3 0h1m-17 1h3m25 0h1m-28 1h3m4 0h1m18 0h1m-28 1h5m4 0h1m16 0h2m-27 1h4m3 0h2m16 0h1m-26 1h2m1 0h6m-6 1h5m-4 1h4m4 0h1m12 0h1m-22 1h1m20 0h1m-23 1h2m7 0h3m1 0h1m7 0h1m-22 1h2m3 0h7m8 0h2m-21 1h11m8 0h2m-19 1h8m8 0h3m-20 1h3m11 0h1m1 0h2m-23 1h1m4 0h3m11 0h3m3 0h2m-28 1h1m5 0h3m12 0h2m3 0h4m-32 1h1m8 0h2m12 0h1m4 0h5m-34 1h1m11 0h1m7 0h1m7 0h2m3 0h1m-34 1h1m14 0h2m4 0h1m11 0h3m-36 1h2m31 0h4m-37 1h2m16 0h2m-18 1h2m7 0h5m-14 1h2m3 0h2m3 0h4m-14 1h3m2 0h5m-8 1h1m3 0h4m-4 1h4m-6 1h1m1 0h10"
     id="path18" />
  <path
     stroke="#2c2c2c"
     d="M53 20h1m-5 1h1m-24 1h1m10 25h1m0 5h1m-10 5h1"
     id="path20" />
  <path
     id="path22"
     d="M38 22h1m6 40h1"
     stroke="#cccccc" />
  <path
     stroke="#717171"
     d="M23 33h1"
     id="path24" />
  <path
     stroke="#6d6d6d"
     d="M33 33h1"
     id="path26" />
  <path
     stroke="#c8c8c8"
     d="M42 35h1m4 25h1"
     id="path28" />
  <path
     stroke="#292929"
     d="M38 46h1"
     id="path30" />
  <path
     stroke="#cdcdcd"
     d="M46 61h1"
     id="path32" />
</svg>
